<?xml version="1.0" encoding="UTF-8" standalone="no"?>
<svg
   id="Layer_1"
   data-name="Layer 1"
   viewBox="0 0 48 48"
   version="1.1"
   sodipodi:docname="48.svg"
   inkscape:version="1.1.2 (0a00cf5339, 2022-02-04)"
   width="48"
   height="48"
   xmlns:inkscape="http://www.inkscape.org/namespaces/inkscape"
   xmlns:sodipodi="http://sodipodi.sourceforge.net/DTD/sodipodi-0.dtd"
   xmlns="http://www.w3.org/2000/svg"
   xmlns:svg="http://www.w3.org/2000/svg"
   xmlns:rdf="http://www.w3.org/1999/02/22-rdf-syntax-ns#"
   xmlns:cc="http://creativecommons.org/ns#"
   xmlns:dc="http://purl.org/dc/elements/1.1/">
  <sodipodi:namedview
     id="namedview33"
     pagecolor="#ffffff"
     bordercolor="#999999"
     borderopacity="1"
     inkscape:pageshadow="0"
     inkscape:pageopacity="0"
     inkscape:pagecheckerboard="0"
     showgrid="false"
     inkscape:zoom="9.359375"
     inkscape:cx="15.278798"
     inkscape:cy="23.986644"
     inkscape:window-width="1920"
     inkscape:window-height="1003"
     inkscape:window-x="0"
     inkscape:window-y="27"
     inkscape:window-maximized="1"
     inkscape:current-layer="Layer_1"
     fit-margin-top="0"
     fit-margin-left="0"
     fit-margin-right="0"
     fit-margin-bottom="0">
    <inkscape:grid
       type="xygrid"
       id="grid115"
       originx="-8"
       originy="-8" />
  </sodipodi:namedview>
  <defs
     id="defs4">
    <style
       id="style2">.cls-1{fill:#e5e5e5;}.cls-2{fill:#d1d1d1;}.cls-3{fill:#35251c;}.cls-4{fill:#fff;}.cls-5{fill:#915441;}.cls-6{fill:#c46c30;}.cls-7{fill:#844e40;}</style>
  </defs>
  <title
     id="title6">Top View Coffee Cup Icon</title>
  <circle
     class="cls-1"
     cx="24"
     cy="24"
     r="22.848738"
     id="circle8"
     style="stroke-width:0.767509" />
  <path
     class="cls-2"
     d="M 27.599616,1.4429165 V 46.557083 a 22.841062,22.841062 0 0 0 0,-45.1141665 z"
     id="path10"
     style="stroke-width:0.767509" />
  <path
     class="cls-3"
     d="M 24,48 A 24,24 0 1 1 48,24 24.0307,24.0307 0 0 1 24,48 Z M 24,2.302526 A 21.697474,21.697474 0 1 0 45.697474,24 21.720499,21.720499 0 0 0 24,2.302526 Z"
     id="path12"
     style="stroke-width:0.767509" />
  <circle
     class="cls-4"
     cx="24"
     cy="24"
     r="13.346977"
     id="circle14"
     style="stroke-width:0.767509" />
  <path
     class="cls-1"
     d="m 27.599616,11.151903 v 25.696194 a 13.339303,13.339303 0 0 0 0,-25.696194 z"
     id="path16"
     style="stroke-width:0.767509" />
  <path
     class="cls-1"
     d="m 37.492805,33.210106 -2.1567,-2.1567 a 13.423729,13.423729 0 0 1 -5.057883,4.750879 l 2.302526,2.302527 a 3.2081868,3.2081868 0 0 0 4.535977,0 l 0.368405,-0.368405 a 3.2081868,3.2081868 0 0 0 0.0077,-4.528301 z"
     id="path18"
     style="stroke-width:0.767509" />
  <path
     class="cls-3"
     d="m 38.306364,32.373521 -1.535018,-1.535018 a 14.582667,14.582667 0 1 0 -6.746402,6.324273 l 1.742245,1.742245 a 4.3824752,4.3824752 0 0 0 6.14007,0 l 0.368405,-0.37608 a 4.3517749,4.3517749 0 0 0 0.0307,-6.15542 z M 11.804285,24 a 12.195715,12.195715 0 0 1 24.39143,0 12.080588,12.080588 0 0 1 -1.880397,6.485449 c -0.122801,0.191878 -0.253278,0.383755 -0.383754,0.575632 l -0.138152,0.176527 c -0.214902,0.299328 -0.45283,0.583307 -0.690758,0.85961 l -0.307003,0.337704 -0.353054,0.353054 c -0.168852,0.153501 -0.337704,0.314678 -0.514231,0.460505 l -0.237928,0.214902 c -0.253278,0.199553 -0.506556,0.39143 -0.767509,0.567957 l -0.245602,0.168852 q -0.368405,0.245603 -0.767509,0.460505 l -0.138152,0.08443 A 12.20339,12.20339 0 0 1 11.804285,24 Z m 24.87496,12.901823 -0.399104,0.376079 a 2.0415734,2.0415734 0 0 1 -2.901184,0 l -1.274064,-1.274064 c 0.345379,-0.230253 0.675408,-0.483531 1.005436,-0.767509 0.130477,-0.107451 0.260953,-0.230253 0.39143,-0.345379 0.130476,-0.115127 0.360729,-0.314679 0.537256,-0.483531 0.176527,-0.168852 0.322354,-0.322353 0.475855,-0.491205 l 0.368405,-0.399105 c 0.168852,-0.199552 0.337704,-0.399105 0.49888,-0.606332 l 0.0921,-0.107451 1.204989,1.174288 a 2.0415734,2.0415734 0 0 1 1e-6,2.924209 z"
     id="path20"
     style="stroke-width:0.767509" />
  <circle
     class="cls-5"
     cx="24"
     cy="24"
     r="8.818676"
     id="circle22"
     style="stroke-width:0.767509" />
  <ellipse
     class="cls-6"
     cx="-3.5519443"
     cy="28.885105"
     rx="1.8420212"
     ry="1.5273426"
     transform="rotate(-53.3)"
     id="ellipse24"
     style="stroke-width:0.767509" />
  <ellipse
     class="cls-6"
     cx="-22.463095"
     cy="21.525635"
     rx="2.3639271"
     ry="1.5273426"
     transform="rotate(-83.68)"
     id="ellipse26"
     style="stroke-width:0.767509" />
  <path
     class="cls-7"
     d="m 27.599616,15.956508 v 16.117685 a 8.811001,8.811001 0 0 0 0,-16.117685 z"
     id="path28"
     style="stroke-width:0.767509" />
  <path
     class="cls-3"
     d="M 24,33.977614 A 9.9776143,9.9776143 0 1 1 33.977614,24 9.9776143,9.9776143 0 0 1 24,33.977614 Z M 24,16.324912 A 7.6750879,7.6750879 0 1 0 31.675088,24 7.6750879,7.6750879 0 0 0 24,16.324912 Z"
     id="path30"
     style="stroke-width:0.767509" />
  <metadata
     id="metadata133">
    <rdf:RDF>
      <cc:Work
         rdf:about="">
        <dc:title>Top View Coffee Cup Icon</dc:title>
      </cc:Work>
    </rdf:RDF>
  </metadata>
</svg>
