<?xml version="1.0" encoding="UTF-8" standalone="no"?>
<svg
   version="1.0"
   width="16"
   height="16"
   viewBox="0 0 12.000001 12"
   preserveAspectRatio="xMidYMid meet"
   id="svg12"
   sodipodi:docname="15newnegro.svg"
   inkscape:version="1.1.2 (0a00cf5339, 2022-02-04)"
   xmlns:inkscape="http://www.inkscape.org/namespaces/inkscape"
   xmlns:sodipodi="http://sodipodi.sourceforge.net/DTD/sodipodi-0.dtd"
   xmlns="http://www.w3.org/2000/svg"
   xmlns:svg="http://www.w3.org/2000/svg">
  <defs
     id="defs16" />
  <sodipodi:namedview
     id="namedview14"
     pagecolor="#ffffff"
     bordercolor="#999999"
     borderopacity="1"
     inkscape:pageshadow="0"
     inkscape:pageopacity="0"
     inkscape:pagecheckerboard="0"
     inkscape:document-units="pt"
     showgrid="false"
     units="px"
     fit-margin-top="0"
     fit-margin-left="0"
     fit-margin-right="0"
     fit-margin-bottom="0"
     inkscape:zoom="37.4375"
     inkscape:cx="5.4490818"
     inkscape:cy="6.851419"
     inkscape:window-width="1920"
     inkscape:window-height="1003"
     inkscape:window-x="0"
     inkscape:window-y="27"
     inkscape:window-maximized="1"
     inkscape:current-layer="svg12">
    <inkscape:grid
       type="xygrid"
       id="grid833"
       originx="-18.768116"
       originy="-18.853626" />
  </sodipodi:namedview>
  <metadata
     id="metadata2">
Created by potrace 1.16, written by Peter Selinger 2001-2019
</metadata>
  <g
     transform="matrix(0.02443512,0,0,-0.02443512,0.13268175,11.837407)"
     fill="#000000"
     stroke="none"
     id="g10"
     style="fill:#bebebe;fill-opacity:1">
    <path
       d="M 145,451 C 61,412 10,331 10,238 11,36 252,-66 399,73 c 118,112 85,310 -64,378 -52,24 -138,24 -190,0 z M 318,434 C 428,389 480,260 431,155 370,23 202,-11 96,88 -7,184 16,358 139,422 c 61,32 122,36 179,12 z"
       id="path4"
       style="fill:#bebebe;fill-opacity:1" />
    <path
       d="M 168,365 C 108,332 83,243 115,177 c 25,-52 61,-72 132,-73 35,-1 69,-7 77,-14 34,-27 85,30 57,63 -6,8 -8,33 -5,64 8,62 -14,114 -61,143 -38,24 -108,26 -147,5 z m 156,-44 c 26,-27 31,-39 31,-81 0,-43 -5,-54 -33,-82 -28,-28 -39,-33 -82,-33 -43,0 -54,5 -82,33 -28,28 -33,39 -33,81 0,52 25,92 70,112 37,16 96,3 129,-30 z m 41,-181 c 4,-6 1,-17 -5,-26 -10,-11 -16,-12 -26,-3 -11,9 -11,15 -3,25 14,17 25,18 34,4 z"
       id="path6"
       style="fill:#bebebe;fill-opacity:1" />
    <path
       d="m 194,322 c -17,-11 -37,-34 -44,-52 -11,-27 -11,-36 3,-65 46,-97 182,-70 182,36 0,74 -79,119 -141,81 z"
       id="path8"
       style="fill:#bebebe;fill-opacity:1" />
  </g>
</svg>
